<mxfile host="app.diagrams.net" agent="Mozilla/5.0 (X11; Ubuntu; Linux x86_64; rv:130.0) Gecko/20100101 Firefox/130.0" version="24.8.1">
  <diagram name="Page-1" id="1ThJD4dNrCfU1xDFGCmD">
    <mxGraphModel>
      <root>
        <mxCell id="0" />
        <mxCell id="1" parent="0" />
        <mxCell id="2" value="Backend - SpringBoot" style="whiteSpace=wrap;strokeWidth=2;" vertex="1" parent="1">
          <mxGeometry x="29" y="256" width="376" height="297" as="geometry" />
        </mxCell>
        <mxCell id="3" value="Frontend - React" style="whiteSpace=wrap;strokeWidth=2;" vertex="1" parent="1">
          <mxGeometry x="8" y="8" width="397" height="198" as="geometry" />
        </mxCell>
        <UserObject label="Components" link="#frontend" id="4">
          <mxCell style="whiteSpace=wrap;strokeWidth=2;" vertex="1" parent="1">
            <mxGeometry x="187" y="33" width="151" height="49" as="geometry" />
          </mxCell>
        </UserObject>
        <mxCell id="5" value="Redux" style="whiteSpace=wrap;strokeWidth=2;" vertex="1" parent="1">
          <mxGeometry x="43" y="132" width="106" height="49" as="geometry" />
        </mxCell>
        <mxCell id="6" value="API Calls" style="whiteSpace=wrap;strokeWidth=2;" vertex="1" parent="1">
          <mxGeometry x="199" y="132" width="126" height="49" as="geometry" />
        </mxCell>
        <UserObject label="REST Controllers" link="#backend" id="7">
          <mxCell style="whiteSpace=wrap;strokeWidth=2;" vertex="1" parent="1">
            <mxGeometry x="117" y="281" width="184" height="49" as="geometry" />
          </mxCell>
        </UserObject>
        <mxCell id="8" value="Service Layer" style="whiteSpace=wrap;strokeWidth=2;" vertex="1" parent="1">
          <mxGeometry x="74" y="380" width="158" height="49" as="geometry" />
        </mxCell>
        <mxCell id="9" value="Data Access Layer" style="whiteSpace=wrap;strokeWidth=2;" vertex="1" parent="1">
          <mxGeometry x="165" y="479" width="194" height="49" as="geometry" />
        </mxCell>
        <mxCell id="10" value="" style="curved=1;startArrow=none;endArrow=block;exitX=0.5;exitY=1;entryX=0.5;entryY=0;" edge="1" parent="1" source="4" target="6">
          <mxGeometry relative="1" as="geometry">
            <Array as="points" />
          </mxGeometry>
        </mxCell>
        <mxCell id="11" value="" style="curved=1;startArrow=none;endArrow=block;exitX=0.29;exitY=1;entryX=0.5;entryY=0;" edge="1" parent="1" source="6" target="7">
          <mxGeometry relative="1" as="geometry">
            <Array as="points">
              <mxPoint x="209" y="206" />
            </Array>
          </mxGeometry>
        </mxCell>
        <mxCell id="12" value="" style="curved=1;startArrow=none;endArrow=block;exitX=0.35;exitY=1;entryX=0.5;entryY=0;" edge="1" parent="1" source="7" target="8">
          <mxGeometry relative="1" as="geometry">
            <Array as="points">
              <mxPoint x="152" y="355" />
            </Array>
          </mxGeometry>
        </mxCell>
        <mxCell id="13" value="" style="curved=1;startArrow=none;endArrow=block;exitX=0.5;exitY=1;entryX=0.22;entryY=0;" edge="1" parent="1" source="8" target="9">
          <mxGeometry relative="1" as="geometry">
            <Array as="points">
              <mxPoint x="152" y="454" />
            </Array>
          </mxGeometry>
        </mxCell>
        <mxCell id="14" value="" style="curved=1;startArrow=none;endArrow=block;exitX=0.7;exitY=0;entryX=0.81;entryY=1;" edge="1" parent="1" source="9" target="6">
          <mxGeometry relative="1" as="geometry">
            <Array as="points">
              <mxPoint x="340" y="454" />
              <mxPoint x="340" y="206" />
            </Array>
          </mxGeometry>
        </mxCell>
        <mxCell id="15" value="" style="curved=1;startArrow=none;endArrow=block;exitX=0.51;exitY=0;entryX=0.66;entryY=1;" edge="1" parent="1" source="9" target="7">
          <mxGeometry relative="1" as="geometry">
            <Array as="points">
              <mxPoint x="266" y="454" />
              <mxPoint x="266" y="355" />
            </Array>
          </mxGeometry>
        </mxCell>
      </root>
    </mxGraphModel>
  </diagram>
</mxfile>
